<svg width="55" height="55" xmlns="http://www.w3.org/2000/svg" xmlns:xlink="http://www.w3.org/1999/xlink" xml:space="preserve" overflow="hidden"><g transform="translate(-225 -418)"><g><g><g><g><path d="M256.921 435.806 253.598 435.806 253.598 435.516C253.598 435.034 253.598 434.569 253.54 434.12L255.351 434.12 258.99 436.072 260.651 434.411 256.672 430.589 253.349 430.589C253.349 429.875 253.299 429.468 253.299 429.468L253.299 429.227 253.299 429.152C253.141 428.516 252.575 428.066 251.92 428.055L251.181 428.055C250.552 428.059 249.998 428.469 249.81 429.069 249.77 429.184 249.747 429.304 249.743 429.426 249.743 429.426 249.743 429.85 249.685 430.589L246.454 430.589 242.034 434.743 243.778 436.446 247.791 434.095 249.453 434.095C249.453 434.627 249.394 435.192 249.361 435.757L246.204 435.757 241.594 440.102 243.371 441.888 247.592 439.395 249.253 439.395C248.838 447.645 248.314 458.378 248.182 461.236L248.182 461.585 248.182 461.768C248.182 461.901 248.182 461.976 248.182 461.984 248.182 463.222 249.843 463.878 251.43 463.886 252.992 463.886 254.662 463.305 254.662 462.026 254.662 462.026 254.662 461.793 254.662 461.353L254.662 461.037 254.662 460.804C254.537 457.298 254.13 447.213 253.831 439.395L255.65 439.395 259.463 441.439 261.075 439.769ZM255.966 437.809 251.986 437.809 252.036 438.997C252.352 446.881 252.776 457.348 252.909 460.904 252.909 460.962 252.909 461.012 252.909 461.062L252.909 461.519C252.909 461.718 252.909 461.868 252.909 461.967 252.422 462.209 251.882 462.324 251.338 462.3 250.786 462.328 250.236 462.202 249.752 461.934L249.752 461.751C249.752 461.693 249.752 461.627 249.752 461.552L249.752 461.369C249.885 458.395 250.45 446.989 250.865 438.648L250.906 437.775 247.085 437.775 245.423 438.756 246.827 437.435 250.931 437.435 250.973 436.654C251.039 435.416 251.098 434.286 251.147 433.331L251.189 432.458 247.342 432.458 246.071 433.206 247.11 432.226 251.264 432.226 251.305 431.437C251.347 430.606 251.38 430.008 251.397 429.692L251.687 429.692C251.687 429.991 251.729 430.598 251.762 431.428L251.762 432.259 255.974 432.259 256.805 433.09 255.742 432.458 251.754 432.458 251.754 433.289C251.754 433.979 251.812 434.735 251.845 435.549L251.92 437.435 256.19 437.435 257.362 438.556Z" fill="#F6A01A" fill-rule="nonzero" fill-opacity="1"/></g></g></g></g></g></svg>