<svg width="65" height="65" xmlns="http://www.w3.org/2000/svg" xmlns:xlink="http://www.w3.org/1999/xlink" xml:space="preserve" overflow="hidden"><g transform="translate(-348 -184)"><g><g><g><g><path d="M397.994 224.178 393.071 224.178 393.071 204.21 366.556 204.21 366.556 224.178 361.633 224.178 361.633 201.256C361.633 200.168 362.514 199.287 363.602 199.287L396.025 199.287C397.113 199.287 397.994 200.168 397.994 201.256ZM395.041 222.209 396.025 222.209 396.025 201.256 363.602 201.256 363.602 222.209 364.586 222.209 364.586 202.241 395.041 202.241Z" stroke="#333333" stroke-width="0.984554" stroke-linecap="butt" stroke-linejoin="miter" stroke-miterlimit="4" stroke-opacity="1" fill="#40494F" fill-rule="nonzero" fill-opacity="1"/><path d="M401.45 232.262 397.935 225.162 361.682 225.162 358.167 232.262C357.9 232.739 357.9 233.32 358.167 233.798 358.466 234.252 358.982 234.517 359.526 234.497L400.062 234.497C400.609 234.517 401.127 234.252 401.431 233.798 401.709 233.325 401.717 232.741 401.45 232.262ZM360.234 232.527 362.913 227.122 396.714 227.122 399.393 232.527Z" stroke="#333333" stroke-width="0.984554" stroke-linecap="butt" stroke-linejoin="miter" stroke-miterlimit="4" stroke-opacity="1" fill="#40494F" fill-rule="nonzero" fill-opacity="1"/><path d="M384.584 231.208C384.119 231.626 383.525 231.873 382.9 231.907L376.5 231.907C375.879 231.873 375.288 231.626 374.826 231.208 374.442 230.824 374.57 230.509 375.112 230.509L384.289 230.509C384.83 230.509 384.968 230.824 384.584 231.208Z" stroke="#333333" stroke-width="0.984554" stroke-linecap="butt" stroke-linejoin="miter" stroke-miterlimit="4" stroke-opacity="1" fill="#40494F" fill-rule="nonzero" fill-opacity="1"/><path d="M379.218 214.666 376.067 211.506 377.849 209.734 369.982 207.114 372.601 214.972 374.383 213.199 377.534 216.35 379.218 214.666Z" stroke="#333333" stroke-width="0.984554" stroke-linecap="butt" stroke-linejoin="miter" stroke-miterlimit="4" stroke-opacity="1" fill="#40494F" fill-rule="nonzero" fill-opacity="1"/></g></g></g></g></g></svg>