<svg width="54" height="54" xmlns="http://www.w3.org/2000/svg" xmlns:xlink="http://www.w3.org/1999/xlink" xml:space="preserve" overflow="hidden"><g transform="translate(-336 -162)"><g><g><g><g><path d="M8.35769 34.8822 12.3531 34.8822 12.3531 43.6638 8.35769 43.6638Z" fill="#F6A01A" fill-rule="nonzero" fill-opacity="1" transform="matrix(1.01887 0 0 1 336 163)"/><path d="M13.7963 20.034 17.7917 20.034 17.7917 43.6638 13.7963 43.6638Z" fill="#F6A01A" fill-rule="nonzero" fill-opacity="1" transform="matrix(1.01887 0 0 1 336 163)"/><path d="M19.1615 28.2694 23.1569 28.2694 23.1569 43.6638 19.1615 43.6638Z" fill="#F6A01A" fill-rule="nonzero" fill-opacity="1" transform="matrix(1.01887 0 0 1 336 163)"/><path d="M24.5349 22.7003 28.5303 22.7003 28.5303 43.6638 24.5349 43.6638Z" fill="#F6A01A" fill-rule="nonzero" fill-opacity="1" transform="matrix(1.01887 0 0 1 336 163)"/><path d="M29.9083 28.7342 33.9037 28.7342 33.9037 43.672 29.9083 43.672Z" fill="#F6A01A" fill-rule="nonzero" fill-opacity="1" transform="matrix(1.01887 0 0 1 336 163)"/><path d="M35.2735 17.8569 39.2689 17.8569 39.2689 43.6638 35.2735 43.6638Z" fill="#F6A01A" fill-rule="nonzero" fill-opacity="1" transform="matrix(1.01887 0 0 1 336 163)"/><path d="M40.6469 7.50969 44.6423 7.50969 44.6423 43.6638 40.6469 43.6638Z" fill="#F6A01A" fill-rule="nonzero" fill-opacity="1" transform="matrix(1.01887 0 0 1 336 163)"/></g></g></g></g></g></svg>