<svg width="44" height="44" xmlns="http://www.w3.org/2000/svg" xmlns:xlink="http://www.w3.org/1999/xlink" xml:space="preserve" overflow="hidden"><g transform="translate(-148 -208)"><g><g><g><g><path d="M14.6465 7.72677C14.22 7.16281 13.5395 6.8499 12.8338 6.89323 12.1324 6.84666 11.4543 7.15467 11.0278 7.71354 10.5068 8.33492 10.2672 9.14471 10.3663 9.94954L10.3663 11.6828C10.3447 12.4732 10.5765 13.2498 11.0278 13.8989 11.4549 14.4665 12.1381 14.7819 12.8471 14.7391 13.5379 14.7325 14.1909 14.4229 14.6332 13.8923 15.1019 13.2466 15.3354 12.4598 15.2948 11.6629L15.2948 9.92308C15.3169 9.14074 15.09 8.37164 14.6465 7.72677ZM12.8338 13.6012C12.5107 13.63 12.1955 13.4899 12.0003 13.2308 11.7615 12.832 11.6442 12.3722 11.6629 11.9077L11.6629 9.79739C11.6291 9.33146 11.7475 8.86713 12.0003 8.47431 12.1899 8.20698 12.5075 8.06085 12.8338 8.09062 13.1501 8.06091 13.4588 8.19898 13.6475 8.45446 13.8606 8.86137 13.9567 9.31929 13.9254 9.77754L13.9254 11.9077C13.9751 12.3654 13.8827 12.8274 13.6608 13.2308 13.4677 13.4888 13.155 13.6289 12.8338 13.6012Z" fill="#F6A01A" fill-rule="nonzero" fill-opacity="1" transform="matrix(1 0 0 1.02326 148 208)"/><path d="M19.2772 6.93954 19.2772 14.6597 17.9211 14.6597 17.9211 8.40154 16.4128 8.40154 16.4128 7.29015 19.2772 6.93954Z" fill="#F6A01A" fill-rule="nonzero" fill-opacity="1" transform="matrix(1 0 0 1.02326 148 208)"/><path d="M26.1837 7.72677C25.7573 7.16281 25.0767 6.8499 24.3711 6.89323 23.67 6.84911 22.993 7.15659 22.5651 7.71354 22.0964 8.36178 21.8631 9.1506 21.9035 9.94954L21.9035 11.6828C21.8786 12.4736 22.1107 13.2512 22.5651 13.8989 22.99 14.4653 23.6708 14.7809 24.3777 14.7391 25.0712 14.7362 25.7278 14.4261 26.1705 13.8923 26.6421 13.248 26.8759 12.4602 26.832 11.6629L26.832 9.92308C26.8542 9.14074 26.6272 8.37164 26.1837 7.72677ZM24.4769 13.6012C24.1446 13.641 23.8164 13.4996 23.6169 13.2308 23.3781 12.832 23.2608 12.3722 23.2795 11.9077L23.2795 9.79739C23.2243 9.3402 23.3145 8.87725 23.5375 8.47431 23.7289 8.20916 24.0452 8.06356 24.3711 8.09062 24.6891 8.06118 24.9997 8.19891 25.1914 8.45446 25.4018 8.86217 25.4956 9.31995 25.4626 9.77754L25.4626 9.96277 25.5354 9.96277 25.5354 11.9077C25.5863 12.3647 25.4962 12.8264 25.2774 13.2308 25.088 13.4787 24.7885 13.6173 24.4769 13.6012Z" fill="#F6A01A" fill-rule="nonzero" fill-opacity="1" transform="matrix(1 0 0 1.02326 148 208)"/><path d="M30.8211 6.93954 30.8211 14.6597 29.4583 14.6597 29.4583 8.40154 27.9566 8.40154 27.9566 7.29015 30.8211 6.93954Z" fill="#F6A01A" fill-rule="nonzero" fill-opacity="1" transform="matrix(1 0 0 1.02326 148 208)"/><path d="M13.5483 17.4315 13.5483 25.0723 12.1922 25.0723 12.1922 18.8075 10.6838 18.8075 10.6838 17.7755 13.5483 17.4315Z" fill="#F6A01A" fill-rule="nonzero" fill-opacity="1" transform="matrix(1 0 0 1.02326 148 208)"/><path d="M19.2772 17.4315 19.2772 25.0723 17.9211 25.0723 17.9211 18.8075 16.4128 18.8075 16.4128 17.7755 19.2772 17.4315Z" fill="#F6A01A" fill-rule="nonzero" fill-opacity="1" transform="matrix(1 0 0 1.02326 148 208)"/><path d="M26.746 21.9763 26.746 20.4349C26.7668 19.6405 26.5352 18.86 26.0845 18.2055 25.653 17.6449 24.9714 17.3351 24.2652 17.3786 23.575 17.3421 22.9113 17.6492 22.4923 18.1989 22.0236 18.8472 21.7903 19.636 21.8308 20.4349L21.8308 22.1682C21.769 22.974 22.0255 23.772 22.5452 24.3909 22.9761 24.9486 23.6542 25.258 24.3578 25.2178 25.0496 25.2244 25.7085 24.924 26.1572 24.3975 26.6269 23.7523 26.8604 22.9652 26.8188 22.1682L26.8188 21.9763ZM24.4769 24.0866C24.1558 24.1143 23.8431 23.9742 23.65 23.7162 23.413 23.3167 23.2958 22.8573 23.3126 22.3931L23.3126 20.2762C23.2592 19.819 23.3493 19.3566 23.5706 18.9531 23.766 18.6935 24.0802 18.5513 24.4042 18.576 24.7222 18.5466 25.0328 18.6843 25.2245 18.9398 25.4348 19.3476 25.5287 19.8053 25.4957 20.2629L25.4957 20.4548 25.5685 20.4548 25.5685 22.3798C25.6202 22.8369 25.5301 23.2988 25.3105 23.7029 25.1174 23.966 24.8023 24.111 24.4769 24.0866Z" fill="#F6A01A" fill-rule="nonzero" fill-opacity="1" transform="matrix(1 0 0 1.02326 148 208)"/><path d="M31.992 18.2055C31.12 17.2063 29.603 17.1032 28.6037 17.9752 28.5218 18.0466 28.4449 18.1236 28.3734 18.2055 27.9047 18.8538 27.6714 19.6426 27.7118 20.4415L27.7118 22.1748C27.692 22.967 27.9236 23.7451 28.3734 24.3975 28.8078 24.9545 29.4873 25.2634 30.1926 25.2245 30.8843 25.231 31.5433 24.9306 31.992 24.4042 32.4588 23.7574 32.692 22.9714 32.6535 22.1748L32.6535 20.4349C32.6776 19.6401 32.4457 18.8586 31.992 18.2055ZM30.2522 24.0866C29.9308 24.1156 29.6175 23.9753 29.4252 23.7162 29.1882 23.3167 29.071 22.8573 29.0878 22.3931L29.0878 20.2762C29.0344 19.819 29.1246 19.3566 29.3458 18.9531 29.7559 18.4964 30.4586 18.4586 30.9153 18.8687 30.9449 18.8953 30.9731 18.9234 30.9997 18.9531 31.2069 19.3619 31.3006 19.8188 31.2709 20.2762L31.3437 22.3931C31.3954 22.8501 31.3053 23.312 31.0857 23.7162 30.8897 23.9743 30.5751 24.1141 30.2522 24.0866Z" fill="#F6A01A" fill-rule="nonzero" fill-opacity="1" transform="matrix(1 0 0 1.02326 148 208)"/><path d="M15.2154 32.4551 15.2154 30.9137C15.2394 30.121 15.0074 29.3415 14.5538 28.6909 14.1259 28.1289 13.4465 27.8164 12.7412 27.8574 12.0393 27.816 11.3625 28.1258 10.9352 28.6843 10.4675 29.3306 10.2342 30.1169 10.2737 30.9137L10.2737 32.6469C10.2319 33.4492 10.4835 34.2393 10.9815 34.8697 11.4114 35.4534 12.1108 35.7757 12.8338 35.7231 13.5246 35.7251 14.1817 35.4255 14.6332 34.9028 15.1009 34.254 15.3342 33.4656 15.2948 32.6668L15.2948 32.4749ZM12.8338 34.4992C12.509 34.5291 12.1924 34.3859 12.0003 34.1222 11.7501 33.7282 11.632 33.2647 11.6629 32.7991L11.6629 30.6888C11.6454 30.2244 11.7626 29.7649 12.0003 29.3657 12.1955 29.1066 12.5107 28.9665 12.8338 28.9952 13.1484 28.9667 13.4557 29.1015 13.6475 29.3525 13.8592 29.7598 13.9554 30.2174 13.9254 30.6755L13.9254 32.7858C13.9769 33.2436 13.8844 33.7061 13.6608 34.1089 13.473 34.3755 13.159 34.5238 12.8338 34.4992Z" fill="#F6A01A" fill-rule="nonzero" fill-opacity="1" transform="matrix(1 0 0 1.02326 148 208)"/><path d="M20.4482 28.6909C20.0238 28.128 19.3458 27.8151 18.6422 27.8574 17.9395 27.8124 17.2612 28.123 16.8362 28.6843 16.3655 29.3291 16.1319 30.1165 16.1746 30.9137L16.1746 32.6469C16.153 33.4394 16.3847 34.2181 16.8362 34.8697 17.2569 35.4391 17.9351 35.7596 18.6422 35.7231 19.3329 35.7251 19.99 35.4255 20.4415 34.9028 20.9092 34.254 21.1425 33.4656 21.1031 32.6668L21.1031 30.9137C21.1285 30.1218 20.8989 29.3425 20.4482 28.6909ZM18.7149 34.4992C18.3831 34.5379 18.0564 34.3935 17.8615 34.1222 17.6152 33.7263 17.4952 33.2648 17.5175 32.7991L17.5175 30.6888C17.4669 30.231 17.5594 29.7688 17.7822 29.3657 17.9774 29.1066 18.2925 28.9665 18.6157 28.9952 18.9301 28.9679 19.2367 29.1025 19.4294 29.3525 19.6411 29.7598 19.7372 30.2174 19.7072 30.6755L19.7072 30.8674 19.78 30.8674 19.78 32.7858C19.8346 33.2438 19.742 33.7072 19.5154 34.1089 19.3327 34.3672 19.0309 34.5144 18.7149 34.4992Z" fill="#F6A01A" fill-rule="nonzero" fill-opacity="1" transform="matrix(1 0 0 1.02326 148 208)"/><path d="M25.0855 27.9169 25.0855 35.5577 23.7294 35.5577 23.7294 29.2929 22.2211 29.2929 22.2211 28.2609 25.0855 27.9169Z" fill="#F6A01A" fill-rule="nonzero" fill-opacity="1" transform="matrix(1 0 0 1.02326 148 208)"/><path d="M31.992 28.6909C31.1311 27.6917 29.6232 27.5795 28.624 28.4403 28.5343 28.5175 28.4506 28.6013 28.3734 28.6909 27.9057 29.3372 27.6724 30.1236 27.7118 30.9203L27.7118 32.6535C27.6902 33.446 27.922 34.2247 28.3734 34.8763 28.7979 35.4404 29.4743 35.7575 30.1794 35.7231 30.8703 35.726 31.5279 35.4262 31.9788 34.9028 32.4465 34.254 32.6797 33.4656 32.6403 32.6668L32.6403 30.9137C32.6682 30.1224 32.4409 29.3431 31.992 28.6909ZM30.2522 34.4992C29.9293 34.5281 29.6152 34.3848 29.4252 34.1222 29.1875 33.7229 29.0703 33.2634 29.0878 32.7991L29.0878 30.6888C29.0361 30.2317 29.1262 29.7698 29.3458 29.3657 29.7668 28.909 30.4783 28.88 30.935 29.301 30.9574 29.3216 30.979 29.3433 30.9997 29.3657 31.2057 29.7749 31.2993 30.2315 31.2709 30.6888L31.3437 32.7991C31.3963 33.2561 31.3062 33.7184 31.0857 34.1222 30.8919 34.3838 30.5766 34.5265 30.2522 34.4992Z" fill="#F6A01A" fill-rule="nonzero" fill-opacity="1" transform="matrix(1 0 0 1.02326 148 208)"/></g></g></g></g></g></svg>