<svg width="55" height="55" xmlns="http://www.w3.org/2000/svg" xmlns:xlink="http://www.w3.org/1999/xlink" xml:space="preserve" overflow="hidden"><g transform="translate(-493 -465)"><g><g><g><g><path d="M38.2089 36.1297 10.0537 36.1297C8.66224 36.1394 7.52633 35.0193 7.51658 33.6278 7.51635 33.5947 7.51678 33.5617 7.51785 33.5286L7.51785 19.5692C7.51252 18.8978 7.73694 18.2447 8.15385 17.7183 8.63011 17.1525 9.34871 16.8494 10.0863 16.9029L38.0132 16.9029C39.4943 16.841 40.8168 17.8236 41.1851 19.2594L41.1851 19.5692 41.1851 21.0695 42.2858 21.0695C43.4116 21.084 44.3125 22.0082 44.2981 23.1339 44.2975 23.1797 44.2954 23.2254 44.2917 23.2711L44.2917 29.7942C44.4023 30.9145 43.5838 31.9124 42.4634 32.023 42.4423 32.0251 42.4211 32.0269 42.4 32.0283L41.2748 32.0283 41.2748 33.8548 41.1851 34.026C40.7139 35.2678 39.5368 36.0998 38.2089 36.1297ZM10.1189 18.5418C9.63785 18.5418 9.48292 18.6968 9.45031 18.7457 9.26391 18.9775 9.15799 19.2637 9.14862 19.5611L9.14862 33.5286C9.12154 34.0368 9.51154 34.4706 10.0196 34.4977 10.031 34.4984 10.0424 34.4988 10.0537 34.4989L38.2089 34.4989C38.867 34.4878 39.4446 34.058 39.644 33.4308L39.644 30.3975 42.4 30.3975C42.4815 30.3975 42.7098 30.2915 42.7098 29.8268L42.7098 23.3037C42.7098 22.8308 42.506 22.7329 42.3348 22.7329L39.5788 22.7329 39.5788 19.5692C39.3458 18.9159 38.705 18.4987 38.0132 18.55Z" fill="#F6A01A" fill-rule="nonzero" fill-opacity="1" transform="matrix(1 0 0 1.01887 494 466)"/><path d="M38.3231 33.2269 10.4206 33.2269 10.4206 19.8138 38.3231 19.8138ZM12.0677 31.5962 36.6923 31.5962 36.6923 21.4446 12.0514 21.4446Z" fill="#F6A01A" fill-rule="nonzero" fill-opacity="1" transform="matrix(1 0 0 1.01887 494 466)"/><path d="M13.6169 23.0754 23.0754 23.0754 21.094 29.9654 13.6169 29.9654 13.6169 23.0754Z" fill="#F6A01A" fill-rule="nonzero" fill-opacity="1" transform="matrix(1 0 0 1.01887 494 466)"/></g></g></g></g></g></svg>