<svg width="54" height="55" xmlns="http://www.w3.org/2000/svg" xmlns:xlink="http://www.w3.org/1999/xlink" xml:space="preserve" overflow="hidden"><g transform="translate(-592 -294)"><g><g><g><g><path d="M633.538 321.784C632.02 321.798 630.649 322.693 630.024 324.077L625.87 323.196C625.87 322.98 625.87 322.764 625.87 322.54 625.868 319.887 624.397 317.453 622.049 316.218L623.71 311.881C623.906 311.908 624.103 311.922 624.3 311.923 626.448 311.919 628.185 310.175 628.182 308.028 628.178 305.881 626.434 304.143 624.287 304.147 622.139 304.151 620.402 305.894 620.406 308.042 620.408 309.348 621.066 310.565 622.157 311.283L620.495 315.62C619.918 315.469 619.323 315.394 618.726 315.395 617.17 315.402 615.661 315.922 614.431 316.874L607.66 309.954C608.844 308.162 608.351 305.75 606.56 304.567 604.768 303.383 602.356 303.876 601.172 305.667 599.989 307.459 600.481 309.871 602.273 311.054 602.91 311.475 603.656 311.699 604.42 311.698 605.142 311.701 605.851 311.5 606.464 311.117L613.21 318.054C611.295 320.409 611.075 323.716 612.661 326.303L606.788 330.922C605.085 329.615 602.644 329.935 601.336 331.638 600.028 333.341 600.349 335.782 602.052 337.09 603.755 338.398 606.196 338.077 607.504 336.374 608.428 335.17 608.567 333.537 607.859 332.194L613.675 327.583C615.009 328.926 616.824 329.68 618.718 329.676 619.643 329.675 620.559 329.498 621.418 329.153L624.167 334.138C622.53 335.526 622.328 337.98 623.717 339.618 625.106 341.255 627.559 341.457 629.197 340.068 630.835 338.679 631.036 336.226 629.647 334.588 628.924 333.735 627.869 333.235 626.751 333.215 626.377 333.217 626.005 333.27 625.646 333.373L622.896 328.389C624.118 327.516 625.034 326.28 625.513 324.858L629.667 325.747C629.708 327.894 631.482 329.601 633.629 329.559 635.776 329.518 637.483 327.744 637.442 325.597 637.401 323.473 635.663 321.775 633.538 321.784ZM622.082 308.035C622.078 306.801 623.075 305.796 624.309 305.792 625.543 305.788 626.547 306.784 626.552 308.019 626.556 309.243 625.574 310.243 624.35 310.261 623.119 310.261 622.12 309.266 622.115 308.035ZM604.462 310.012C603.232 310.012 602.235 309.015 602.235 307.786 602.235 306.556 603.232 305.559 604.462 305.559 605.691 305.559 606.688 306.556 606.688 307.786 606.69 308.095 606.625 308.401 606.497 308.683 606.263 309.213 605.83 309.63 605.292 309.846 605.029 309.956 604.747 310.012 604.462 310.012ZM604.462 336.231C603.232 336.231 602.235 335.234 602.235 334.005 602.235 332.775 603.232 331.778 604.462 331.778 605.402 331.78 606.239 332.371 606.555 333.257 606.646 333.496 606.691 333.749 606.688 334.005 606.688 335.234 605.691 336.231 604.462 336.231ZM625.073 335.65C625.428 335.191 625.951 334.892 626.527 334.819L626.793 334.819C628.022 334.81 629.026 335.8 629.034 337.03 629.042 338.26 628.052 339.263 626.823 339.272 625.593 339.28 624.59 338.29 624.581 337.06 624.578 336.547 624.752 336.049 625.073 335.65ZM624.242 322.847C624.223 323.417 624.108 323.978 623.902 324.509 623.541 325.46 622.922 326.291 622.115 326.91 621.679 327.264 621.188 327.545 620.662 327.741 620.059 327.968 619.42 328.084 618.776 328.081 617.373 328.083 616.024 327.541 615.012 326.569 614.602 326.192 614.254 325.752 613.982 325.265 613.511 324.446 613.264 323.518 613.268 322.573 613.261 321.373 613.652 320.204 614.381 319.25 614.714 318.8 615.118 318.407 615.577 318.087 616.498 317.42 617.606 317.063 618.742 317.065 619.136 317.064 619.529 317.106 619.914 317.19 620.458 317.31 620.979 317.514 621.459 317.796 623.17 318.766 624.227 320.582 624.226 322.548 624.228 322.648 624.223 322.748 624.209 322.847ZM633.538 327.907C632.458 327.903 631.534 327.127 631.345 326.062 631.333 325.935 631.333 325.807 631.345 325.68 631.346 325.239 631.479 324.807 631.727 324.442 632.411 323.421 633.794 323.146 634.816 323.83 635.838 324.514 636.112 325.897 635.428 326.919 635.007 327.548 634.295 327.92 633.538 327.907Z" fill="#F6A01A" fill-rule="nonzero" fill-opacity="1"/></g></g></g></g></g></svg>