<svg width="54" height="56" xmlns="http://www.w3.org/2000/svg" xmlns:xlink="http://www.w3.org/1999/xlink" xml:space="preserve" overflow="hidden"><g transform="translate(-472 -252)"><g><g><g><g><path d="M495.187 281.554 493.301 281.196 494.962 277.998C495.427 277.109 496.523 276.763 497.413 277.225L499.814 278.463C500.257 278.714 500.82 278.559 501.071 278.116 501.073 278.113 501.075 278.109 501.077 278.106L505.09 271.094C505.563 270.223 506.626 269.862 507.532 270.263L511.57 272.116C511.815 272.212 512.088 272.212 512.334 272.116L513.829 271.227C514.252 270.968 514.804 271.1 515.063 271.522 515.067 271.529 515.071 271.536 515.075 271.543 515.33 271.974 515.189 272.53 514.76 272.789L513.273 273.678C512.506 274.101 511.588 274.149 510.78 273.811L506.751 271.958C506.714 271.941 506.672 271.941 506.635 271.958L502.248 279.718C501.747 280.59 500.646 280.909 499.756 280.44L497.388 279.219C496.944 278.989 496.398 279.163 496.168 279.608 496.168 279.608 496.167 279.609 496.167 279.61Z" fill="#F6A01A" fill-rule="nonzero" fill-opacity="1"/><path d="M517.485 292.113C517.485 292.613 517.079 293.018 516.579 293.018 516.576 293.018 516.573 293.018 516.571 293.018L480.515 293.018 480.515 269.69C480.515 269.19 480.921 268.785 481.421 268.785 481.921 268.785 482.326 269.19 482.326 269.69L482.326 277.009 485.425 278.671C485.766 278.447 486.164 278.328 486.572 278.33 487.729 278.33 488.672 279.258 488.69 280.415L491.108 281.695 495.934 282.625C496.329 282.2 496.883 281.959 497.463 281.961 498.327 281.963 499.101 282.493 499.415 283.298L502.016 283.797 506.344 284.918C507.135 284.056 508.476 284 509.337 284.791 509.65 285.078 509.869 285.452 509.966 285.865L513.04 286.696 516.031 286.812C516.531 286.826 516.925 287.243 516.911 287.743 516.898 288.243 516.481 288.637 515.981 288.623L515.939 288.623 512.708 288.449 509.617 287.618C508.906 288.547 507.577 288.725 506.647 288.014 506.206 287.676 505.915 287.179 505.837 286.63L501.683 285.541 499.366 285.093C499.002 285.797 498.273 286.237 497.48 286.231 496.411 286.227 495.511 285.43 495.378 284.37L490.393 283.39 487.934 282.077C487.556 282.405 487.072 282.585 486.572 282.584 485.402 282.579 484.457 281.627 484.461 280.458 484.461 280.443 484.461 280.429 484.462 280.415 484.462 280.332 484.462 280.249 484.462 280.174L482.326 279.036 482.326 282.085C482.443 282.106 482.553 282.151 482.65 282.218L489.297 286.679C489.709 286.962 490.273 286.857 490.555 286.444 490.575 286.416 490.593 286.386 490.609 286.355L491.59 284.486 493.45 284.852 491.689 288.175C491.47 288.613 491.069 288.932 490.593 289.047 490.112 289.174 489.6 289.08 489.197 288.79L482.326 284.237 482.326 291.215 516.571 291.215C517.069 291.215 517.476 291.614 517.485 292.113Z" fill="#F6A01A" fill-rule="nonzero" fill-opacity="1"/></g></g></g></g></g></svg>