<svg width="55" height="55" xmlns="http://www.w3.org/2000/svg" xmlns:xlink="http://www.w3.org/1999/xlink" xml:space="preserve" overflow="hidden"><g transform="translate(-294 -466)"><g><g><g><g><path d="M337.884 480.982 337.884 494.415 336.538 492.363 336.538 483.798 334.561 484.189C330.556 484.934 326.489 485.298 322.415 485.277 318.352 485.291 314.297 484.921 310.303 484.172L308.326 483.782 308.326 492.363 307.005 494.415 307.005 480.982 308.442 482.527 308.799 482.918 309.314 483.026C313.627 483.891 318.017 484.314 322.415 484.288 326.822 484.316 331.221 483.893 335.542 483.026L336.057 482.918 336.414 482.527 337.859 480.982M339.521 478.664 337.768 478.664 335.226 481.397C331.01 482.248 326.717 482.66 322.415 482.627 318.125 482.658 313.844 482.246 309.638 481.397L307.121 478.631 305.343 478.631 305.343 497.298 307.121 497.298 310.012 492.862 310.012 485.817C314.101 486.584 318.255 486.96 322.415 486.938 326.596 486.958 330.769 486.577 334.877 485.8L334.877 492.845 337.768 497.282 339.546 497.282 339.546 478.631Z" fill="#F6A01A" fill-rule="nonzero" fill-opacity="1"/><path d="M336.696 500.488C336.015 502.15 330.565 502.108 329.577 499.815 329.095 502.607 322.93 501.776 322.44 499.707 322 501.776 315.794 502.607 315.304 499.815 314.315 502.108 308.874 502.158 308.193 500.488 307.445 498.669 311.142 496.393 312.13 493.153 312.471 491.747 312.633 490.304 312.612 488.858 312.762 487.495 315.778 487.678 316.484 488.858 316.833 489.447 317.173 491.699 316.725 494.615 316.666 494.98 317.215 494.881 317.331 494.465 317.769 492.799 317.97 491.079 317.929 489.356 318.012 487.977 321.41 488.151 321.718 489.356 322.125 490.959 322.083 491.666 322.183 494.773 322.181 494.925 322.29 495.055 322.44 495.08 322.592 495.059 322.704 494.926 322.698 494.773 322.806 491.666 322.756 490.959 323.171 489.356 323.479 488.151 326.868 487.977 326.951 489.356 326.913 491.079 327.117 492.799 327.558 494.465 327.666 494.881 328.214 494.98 328.164 494.615 327.716 491.699 328.056 489.447 328.405 488.858 329.103 487.67 332.119 487.487 332.268 488.858 332.252 490.304 332.414 491.746 332.75 493.153 333.739 496.393 337.436 498.669 336.696 500.488Z" fill="#F6A01A" fill-rule="nonzero" fill-opacity="1"/><path d="M340.111 503.18C339.344 503.472 338.53 503.622 337.71 503.62 336.408 503.642 335.114 503.428 333.888 502.989 333.398 502.726 332.809 502.726 332.318 502.989 330.856 503.63 329.27 503.94 327.674 503.894 326.078 503.947 324.49 503.638 323.03 502.989 322.85 502.889 322.646 502.84 322.44 502.848 322.235 502.841 322.031 502.89 321.85 502.989 320.391 503.639 318.803 503.948 317.206 503.894 315.613 503.938 314.03 503.629 312.571 502.989 312.078 502.723 311.485 502.723 310.992 502.989 309.767 503.428 308.472 503.642 307.171 503.62 306.353 503.621 305.542 503.472 304.778 503.18 303.067 502.648 302.577 504.21 303.374 504.717 304.969 506.046 308.766 507.749 322.415 507.749 336.065 507.749 339.945 506.046 341.523 504.717 342.304 504.21 341.822 502.648 340.111 503.18Z" fill="#F6A01A" fill-rule="nonzero" fill-opacity="1"/></g></g></g></g></g></svg>