<svg width="67" height="66" xmlns="http://www.w3.org/2000/svg" xmlns:xlink="http://www.w3.org/1999/xlink" xml:space="preserve" overflow="hidden"><g transform="translate(-833 -70)"><g><g><g><g><path d="M51.7514 24.5465C51.0304 24.4026 50.3424 24.1254 49.7231 23.7292 49.7137 22.9613 49.5808 22.2 49.3292 21.4745 49.7842 20.9028 50.3336 20.4132 50.9538 20.0271 51.8498 19.4166 50.5009 17.2209 49.5458 17.7822 48.948 18.1827 48.2799 18.4667 47.5766 18.6191 47.0228 18.0764 46.3842 17.6275 45.6862 17.2898 45.6007 16.5701 45.6372 15.8411 45.7945 15.1335 46.0209 14.0012 43.52 13.4105 43.2246 14.5428 43.0687 15.2433 42.7886 15.9103 42.3975 16.512 41.6232 16.5213 40.8554 16.6542 40.1231 16.9058 39.5456 16.4542 39.0522 15.9043 38.6658 15.2812 38.016 14.4148 35.8203 15.7538 36.4308 16.7385 36.8297 17.3383 37.1167 18.0055 37.2775 18.7077 36.7373 19.2621 36.2856 19.8964 35.9385 20.5883 35.216 20.6885 34.4811 20.6517 33.7723 20.48 32.6597 20.2634 32.0788 22.7742 33.1914 23.0597 33.8922 23.2196 34.5591 23.503 35.1606 23.8966 35.1685 24.6783 35.3049 25.4534 35.5643 26.1908 35.1171 26.7696 34.5662 27.2605 33.9397 27.6382 33.024 28.2683 34.4418 30.4246 35.3674 29.8831 35.9681 29.4858 36.635 29.199 37.3366 29.0363 37.8893 29.5708 38.5243 30.0128 39.2172 30.3458 39.3125 31.0783 39.2759 31.822 39.1089 32.5415 38.9022 33.6443 41.4129 34.1858 41.6985 33.1225 41.8441 32.3973 42.1247 31.7059 42.5255 31.0843 43.2961 31.0693 44.0598 30.9365 44.7902 30.6905 45.3833 31.1456 45.8873 31.7065 46.2769 32.3446 46.9071 33.2505 49.0634 31.8425 48.512 30.9169 48.1171 30.3161 47.8335 29.649 47.6751 28.9477 48.2116 28.3909 48.6569 27.7529 48.9945 27.0572 49.7243 26.9661 50.4646 27.0061 51.1803 27.1754 52.2929 27.3526 52.8246 24.832 51.7514 24.5465ZM43.6972 25.8166C42.599 26.5117 41.1453 26.1848 40.4504 25.0865 39.7553 23.9883 40.0822 22.5346 41.1805 21.8397 42.2777 21.1452 43.7301 21.4709 44.4258 22.5674 45.1255 23.6497 44.8154 25.0943 43.733 25.794 43.7212 25.8016 43.7092 25.8091 43.6972 25.8166Z" stroke="#333333" stroke-width="0.984554" stroke-linecap="butt" stroke-linejoin="miter" stroke-miterlimit="4" stroke-opacity="1" fill="#40494F" fill-rule="evenodd" fill-opacity="1" transform="matrix(1.01562 0 0 1 834 71)"/><path d="M37.4646 44.0123C36.7999 43.6741 36.2052 43.213 35.712 42.6535 35.9581 41.9385 36.1264 41.1991 36.2142 40.448 36.9034 40.1443 37.647 39.9837 38.4 39.9754 39.4634 39.8868 39.3846 37.3169 38.2917 37.3169 37.5477 37.3578 36.8028 37.2575 36.096 37.0215 35.9513 36.2862 35.7336 35.5672 35.4462 34.8751 35.8971 34.2762 36.4545 33.7655 37.0905 33.3686 37.9372 32.7975 36.5588 30.6018 35.6726 31.1335 35.0458 31.5402 34.3474 31.8241 33.6148 31.9705 33.1195 31.4041 32.565 30.8924 31.9606 30.4443 32.0449 29.7034 32.2688 28.9851 32.6203 28.3274 33.0929 27.3428 30.8185 26.1514 30.2769 27.0966 29.9453 27.7656 29.4833 28.3614 28.9182 28.8492 28.2039 28.6123 27.4687 28.4442 26.7225 28.3471 26.4188 27.6644 26.2548 26.9279 26.24 26.1809 26.1612 25.1274 23.5815 25.1963 23.5815 26.2794 23.6289 27.0268 23.5286 27.7763 23.2862 28.4849 22.5416 28.6368 21.8154 28.8678 21.12 29.1742 20.505 28.7451 19.9798 28.1999 19.5742 27.5692 18.9834 26.7028 16.8271 28.1108 17.3391 28.9871 17.7468 29.6169 18.0309 30.3187 18.176 31.0548 17.6104 31.5441 17.1018 32.0957 16.6597 32.6991 15.9147 32.6129 15.1929 32.3857 14.5329 32.0295 13.5483 31.5668 12.3963 33.8609 13.2923 34.3828 13.9652 34.7217 14.5696 35.1824 15.0745 35.7415 14.8359 36.4542 14.6741 37.1902 14.592 37.9372 13.8994 38.2291 13.1576 38.3862 12.4062 38.4 11.3428 38.4886 11.4215 41.0585 12.5145 41.0486 15.0351 40.9895 14.5526 41.5409 15.4092 43.5102 14.9589 44.0943 14.4089 44.5943 13.7846 44.9871 12.928 45.568 14.3262 47.7342 15.2025 47.2222 15.8299 46.8097 16.5326 46.5253 17.2702 46.3852 17.7671 46.9435 18.3179 47.4514 18.9145 47.9015 18.8368 48.6484 18.6091 49.3718 18.2449 50.0283 17.7822 51.0129 20.0763 52.1649 20.5982 51.2591 20.9368 50.589 21.4015 49.9907 21.9668 49.4966 22.6785 49.7259 23.4104 49.8874 24.1526 49.9791 24.4499 50.6769 24.6071 51.4263 24.6154 52.1846 24.6942 53.2677 27.264 53.1692 27.264 52.0862 27.2166 51.3387 27.317 50.5892 27.5594 49.8806 28.2895 49.7406 29.0024 49.5227 29.6862 49.2308 30.2872 49.6753 30.7984 50.23 31.1926 50.8652 31.7637 51.7022 33.9495 50.3434 33.4277 49.4474 33.016 48.8268 32.7316 48.1307 32.5908 47.3994 33.1573 46.9007 33.6689 46.3428 34.1169 45.7354 34.8585 45.8227 35.5769 46.05 36.2338 46.4049 37.1988 46.8185 38.4 44.5538 37.4646 44.0123ZM25.7575 47.872C20.9491 48.0693 16.8911 44.3311 16.6939 39.5227 16.4965 34.7142 20.2346 30.6562 25.0431 30.459 29.8517 30.2617 33.9096 33.9998 34.1069 38.8083 34.107 38.81 34.107 38.8118 34.1071 38.8135 34.2958 43.6181 30.5615 47.6695 25.7575 47.872ZM25.1865 34.0185C22.3449 34.1353 20.136 36.5336 20.2528 39.3753 20.3697 42.2169 22.768 44.4257 25.6096 44.3089 28.4512 44.192 30.66 41.7937 30.5433 38.9521 30.5431 38.9485 30.543 38.9451 30.5428 38.9415 30.415 36.1067 28.022 33.9073 25.1865 34.0185ZM26.9785 41.6492C25.6056 42.5305 23.7783 42.132 22.897 40.7591 22.0157 39.3863 22.4143 37.5589 23.7871 36.6777 25.16 35.7965 26.9873 36.195 27.8686 37.5678 27.8739 37.5761 27.8791 37.5843 27.8843 37.5926 28.7457 38.9645 28.3417 40.7742 26.9785 41.6492ZM30.5231 38.9514C30.4062 36.1098 28.008 33.9009 25.1663 34.0178 22.3247 34.1346 20.1159 36.5329 20.2327 39.3745 20.3495 42.2161 22.7479 44.425 25.5895 44.3082 25.593 44.308 25.5965 44.3079 25.6 44.3077 28.4373 44.1852 30.6398 41.7888 30.5231 38.9514ZM26.9785 41.6492C25.6056 42.5305 23.7783 42.132 22.897 40.7591 22.0157 39.3863 22.4143 37.5589 23.7871 36.6777 25.16 35.7965 26.9873 36.195 27.8686 37.5678 27.8739 37.5761 27.8791 37.5843 27.8843 37.5926 28.7457 38.9645 28.3417 40.7742 26.9785 41.6492ZM30.5231 38.9514C30.4062 36.1098 28.008 33.9009 25.1663 34.0178 22.3247 34.1346 20.1159 36.5329 20.2327 39.3745 20.3495 42.2161 22.7479 44.425 25.5895 44.3082 25.593 44.308 25.5965 44.3079 25.6 44.3077 28.4373 44.1852 30.6398 41.7888 30.5231 38.9514ZM26.9785 41.6492C25.6056 42.5305 23.7783 42.132 22.897 40.7591 22.0157 39.3863 22.4143 37.5589 23.7871 36.6777 25.16 35.7965 26.9873 36.195 27.8686 37.5678 27.8739 37.5761 27.8791 37.5843 27.8843 37.5926 28.7457 38.9645 28.3417 40.7742 26.9785 41.6492Z" stroke="#333333" stroke-width="0.984554" stroke-linecap="butt" stroke-linejoin="miter" stroke-miterlimit="4" stroke-opacity="1" fill="#40494F" fill-rule="evenodd" fill-opacity="1" transform="matrix(1.01562 0 0 1 834 71)"/></g></g></g></g></g></svg>