<svg width="51" height="51" xmlns="http://www.w3.org/2000/svg" xmlns:xlink="http://www.w3.org/1999/xlink" xml:space="preserve" overflow="hidden"><g transform="translate(-586 -370)"><g><g><g><g><path d="M605.131 401.846C605.245 401.846 605.338 401.939 605.338 402.054L605.338 407.323C605.338 407.438 605.245 407.531 605.131 407.531L599.862 407.531C599.747 407.531 599.654 407.438 599.654 407.323L599.654 402.054C599.654 401.939 599.747 401.846 599.862 401.846Z" fill="#F6A01A" fill-rule="nonzero" fill-opacity="1"/><path d="M614.362 401.846C614.476 401.846 614.569 401.939 614.569 402.054L614.569 407.323C614.569 407.438 614.476 407.531 614.362 407.531L609.092 407.531C608.978 407.531 608.885 407.438 608.885 407.323L608.885 402.054C608.885 401.939 608.978 401.846 609.092 401.846Z" fill="#F6A01A" fill-rule="nonzero" fill-opacity="1"/><path d="M623.592 401.846C623.707 401.846 623.8 401.939 623.8 402.054L623.8 407.323C623.8 407.438 623.707 407.531 623.592 407.531L618.323 407.531C618.208 407.531 618.115 407.438 618.115 407.323L618.115 402.054C618.115 401.939 618.208 401.846 618.323 401.846Z" fill="#F6A01A" fill-rule="nonzero" fill-opacity="1"/><path d="M605.131 393.323C605.245 393.323 605.338 393.416 605.338 393.531L605.338 398.8C605.338 398.915 605.245 399.008 605.131 399.008L599.862 399.008C599.747 399.008 599.654 398.915 599.654 398.8L599.654 393.531C599.654 393.416 599.747 393.323 599.862 393.323Z" fill="#F6A01A" fill-rule="nonzero" fill-opacity="1"/><path d="M614.362 393.323C614.476 393.323 614.569 393.416 614.569 393.531L614.569 398.8C614.569 398.915 614.476 399.008 614.362 399.008L609.092 399.008C608.978 399.008 608.885 398.915 608.885 398.8L608.885 393.531C608.885 393.416 608.978 393.323 609.092 393.323Z" fill="#F6A01A" fill-rule="nonzero" fill-opacity="1"/><path d="M623.592 393.323C623.707 393.323 623.8 393.416 623.8 393.531L623.8 398.8C623.8 398.915 623.707 399.008 623.592 399.008L618.323 399.008C618.208 399.008 618.115 398.915 618.115 398.8L618.115 393.531C618.115 393.416 618.208 393.323 618.323 393.323Z" fill="#F6A01A" fill-rule="nonzero" fill-opacity="1"/><path d="M627.346 383.085 621.731 383.085 621.731 382.315C621.731 381.891 621.386 381.546 620.962 381.546 620.537 381.546 620.192 381.891 620.192 382.315L620.192 383.085 603.269 383.085 603.269 382.315C603.269 381.891 602.925 381.546 602.5 381.546 602.075 381.546 601.731 381.891 601.731 382.315L601.731 383.085 596.577 383.085C596.223 383.089 595.938 383.377 595.938 383.731L595.938 410.869C595.938 411.222 596.224 411.508 596.577 411.508L627.346 411.508C627.699 411.508 627.985 411.222 627.985 410.869L627.985 383.731C627.985 383.377 627.7 383.089 627.346 383.085ZM619.531 384.623C619.607 384.521 619.692 384.426 619.785 384.338 619.908 384.229 620.045 384.136 620.192 384.062L620.192 385.677C620.192 386.102 620.537 386.446 620.962 386.446 621.386 386.446 621.731 386.102 621.731 385.677L621.731 384.077C621.877 384.146 622.012 384.237 622.131 384.346 622.223 384.434 622.308 384.529 622.385 384.631 622.583 384.921 622.69 385.264 622.692 385.615 622.756 386.573 622.031 387.402 621.073 387.466 620.115 387.529 619.287 386.805 619.223 385.847 619.218 385.77 619.218 385.692 619.223 385.615 619.224 385.261 619.331 384.915 619.531 384.623ZM601.069 384.623C601.146 384.521 601.231 384.426 601.323 384.338 601.446 384.229 601.583 384.136 601.731 384.062L601.731 385.677C601.731 386.102 602.075 386.446 602.5 386.446 602.925 386.446 603.269 386.102 603.269 385.677L603.269 384.077C603.416 384.146 603.55 384.237 603.669 384.346 603.762 384.434 603.847 384.529 603.923 384.631 604.122 384.921 604.229 385.264 604.231 385.615 604.295 386.573 603.57 387.402 602.612 387.466 601.654 387.529 600.825 386.805 600.762 385.847 600.756 385.77 600.756 385.692 600.762 385.615 600.762 385.261 600.869 384.915 601.069 384.623ZM626.454 409.969 597.477 409.969 597.477 390.038 626.446 390.038Z" fill="#F6A01A" fill-rule="nonzero" fill-opacity="1"/></g></g></g></g></g></svg>