<svg width="54" height="55" xmlns="http://www.w3.org/2000/svg" xmlns:xlink="http://www.w3.org/1999/xlink" xml:space="preserve" overflow="hidden"><g transform="translate(-172 -202)"><g><g><g><g><path d="M184.702 244.979 215.815 244.979C216.815 244.979 217.626 244.168 217.626 243.168 217.626 243.165 217.626 243.162 217.626 243.159L217.626 241.78 204.658 241.78C204.658 242.629 203.969 243.317 203.121 243.317L197.397 243.317C196.551 243.313 195.868 242.626 195.868 241.78L182.891 241.78 182.891 243.159C182.891 244.161 183.701 244.974 184.702 244.979Z" fill="#F6A01A" fill-rule="nonzero" fill-opacity="1"/><path d="M184.038 239.67 216.488 239.67 216.488 217.239C216.483 215.681 215.221 214.419 213.663 214.415L186.862 214.415C185.304 214.419 184.042 215.681 184.038 217.239ZM186.48 216.974 214.045 216.974 214.045 237.469 186.48 237.469Z" fill="#F6A01A" fill-rule="nonzero" fill-opacity="1"/><path d="M190.651 221.676C190.651 222.639 190.277 223.238 189.562 223.238 188.848 223.238 188.507 222.614 188.507 221.709 188.507 220.803 188.898 220.155 189.596 220.155 190.294 220.155 190.651 220.803 190.651 221.676ZM189.072 221.676C189.072 222.407 189.272 222.781 189.579 222.781 189.886 222.781 190.086 222.382 190.086 221.667 190.086 220.953 189.928 220.562 189.587 220.562 189.247 220.562 189.072 220.961 189.072 221.701Z" fill="#F6A01A" fill-rule="nonzero" fill-opacity="1"/><path d="M192.113 220.72 192.113 220.72 191.573 220.994 191.473 220.562 192.204 220.205 192.67 220.205 192.67 223.188 192.121 223.188Z" fill="#F6A01A" fill-rule="nonzero" fill-opacity="1"/><path d="M196.018 221.676C196.018 222.639 195.644 223.238 194.929 223.238 194.215 223.238 193.874 222.614 193.874 221.709 193.874 220.803 194.265 220.155 194.962 220.155 195.66 220.155 196.018 220.803 196.018 221.676ZM194.439 221.676C194.439 222.407 194.638 222.781 194.946 222.781 195.253 222.781 195.453 222.382 195.453 221.667 195.453 220.953 195.286 220.562 194.954 220.562 194.622 220.562 194.431 220.961 194.431 221.701Z" fill="#F6A01A" fill-rule="nonzero" fill-opacity="1"/><path d="M197.48 220.72 197.48 220.72 196.94 220.994 196.84 220.562 197.571 220.205 198.036 220.205 198.036 223.188 197.488 223.188Z" fill="#F6A01A" fill-rule="nonzero" fill-opacity="1"/><path d="M201.384 221.676C201.384 222.639 201.01 223.238 200.296 223.238 199.582 223.238 199.241 222.614 199.241 221.709 199.241 220.803 199.631 220.155 200.329 220.155 201.027 220.155 201.384 220.803 201.384 221.676ZM199.806 221.676C199.806 222.407 200.005 222.781 200.313 222.781 200.62 222.781 200.819 222.382 200.819 221.667 200.819 220.953 200.653 220.562 200.313 220.562 199.972 220.562 199.806 220.961 199.806 221.701Z" fill="#F6A01A" fill-rule="nonzero" fill-opacity="1"/><path d="M204.068 221.676C204.068 222.639 203.694 223.238 202.979 223.238 202.265 223.238 201.908 222.614 201.908 221.709 201.908 220.803 202.298 220.155 202.996 220.155 203.694 220.155 204.068 220.803 204.068 221.676ZM202.489 221.676C202.489 222.407 202.689 222.781 202.996 222.781 203.303 222.781 203.503 222.382 203.503 221.667 203.503 220.953 203.337 220.562 202.996 220.562 202.655 220.562 202.489 220.961 202.489 221.701Z" fill="#F6A01A" fill-rule="nonzero" fill-opacity="1"/><path d="M205.53 220.72 205.53 220.72 204.982 220.994 204.89 220.562 205.621 220.205 206.062 220.205 206.062 223.188 205.513 223.188Z" fill="#F6A01A" fill-rule="nonzero" fill-opacity="1"/><path d="M209.434 221.676C209.434 222.639 209.061 223.238 208.346 223.238 207.632 223.238 207.291 222.614 207.291 221.709 207.291 220.803 207.682 220.155 208.379 220.155 209.077 220.155 209.434 220.803 209.434 221.676ZM207.856 221.676C207.856 222.407 208.055 222.781 208.363 222.781 208.67 222.781 208.87 222.382 208.87 221.667 208.87 220.953 208.703 220.562 208.363 220.562 208.022 220.562 207.856 220.961 207.856 221.701Z" fill="#F6A01A" fill-rule="nonzero" fill-opacity="1"/><path d="M210.897 220.72 210.897 220.72 210.348 220.994 210.215 220.562 210.938 220.205 211.412 220.205 211.412 223.188 210.863 223.188Z" fill="#F6A01A" fill-rule="nonzero" fill-opacity="1"/><path d="M189.446 226.262 189.446 226.262 188.906 226.536 188.806 226.104 189.538 225.746 190.003 225.746 190.003 228.729 189.446 228.729Z" fill="#F6A01A" fill-rule="nonzero" fill-opacity="1"/><path d="M192.113 226.262 192.113 226.262 191.573 226.536 191.473 226.104 192.204 225.746 192.67 225.746 192.67 228.729 192.121 228.729Z" fill="#F6A01A" fill-rule="nonzero" fill-opacity="1"/><path d="M196.018 227.184C196.018 228.147 195.644 228.746 194.929 228.746 194.215 228.746 193.874 228.122 193.874 227.217 193.874 226.311 194.265 225.663 194.962 225.663 195.66 225.663 196.018 226.311 196.018 227.184ZM194.439 227.184C194.439 227.915 194.638 228.289 194.946 228.289 195.253 228.289 195.453 227.89 195.453 227.175 195.453 226.461 195.286 226.07 194.954 226.07 194.622 226.07 194.431 226.469 194.431 227.209Z" fill="#F6A01A" fill-rule="nonzero" fill-opacity="1"/><path d="M198.701 227.184C198.701 228.147 198.327 228.746 197.613 228.746 196.898 228.746 196.558 228.122 196.558 227.217 196.558 226.311 196.948 225.663 197.646 225.663 198.344 225.663 198.701 226.311 198.701 227.184ZM197.122 227.184C197.122 227.915 197.322 228.289 197.629 228.289 197.937 228.289 198.136 227.89 198.136 227.175 198.136 226.461 197.97 226.07 197.638 226.07 197.305 226.07 197.122 226.469 197.122 227.209Z" fill="#F6A01A" fill-rule="nonzero" fill-opacity="1"/><path d="M201.384 227.184C201.384 228.147 201.01 228.746 200.296 228.746 199.582 228.746 199.241 228.122 199.241 227.217 199.241 226.311 199.631 225.663 200.329 225.663 201.027 225.663 201.384 226.311 201.384 227.184ZM199.806 227.184C199.806 227.915 200.005 228.289 200.313 228.289 200.62 228.289 200.819 227.89 200.819 227.175 200.819 226.461 200.653 226.07 200.313 226.07 199.972 226.07 199.806 226.469 199.806 227.209Z" fill="#F6A01A" fill-rule="nonzero" fill-opacity="1"/><path d="M202.846 226.262 202.846 226.262 202.298 226.536 202.207 226.104 202.938 225.746 203.403 225.746 203.403 228.729 202.855 228.729Z" fill="#F6A01A" fill-rule="nonzero" fill-opacity="1"/><path d="M206.751 227.184C206.751 228.147 206.377 228.746 205.663 228.746 204.948 228.746 204.608 228.122 204.608 227.217 204.608 226.311 204.998 225.663 205.696 225.663 206.394 225.663 206.751 226.311 206.751 227.184ZM205.173 227.184C205.173 227.915 205.372 228.289 205.679 228.289 205.987 228.289 206.186 227.89 206.186 227.175 206.186 226.461 206.02 226.07 205.679 226.07 205.339 226.07 205.173 226.469 205.173 227.209Z" fill="#F6A01A" fill-rule="nonzero" fill-opacity="1"/><path d="M209.434 227.184C209.434 228.147 209.061 228.746 208.346 228.746 207.632 228.746 207.291 228.122 207.291 227.217 207.291 226.311 207.682 225.663 208.379 225.663 209.077 225.663 209.434 226.311 209.434 227.184ZM207.856 227.184C207.856 227.915 208.055 228.289 208.363 228.289 208.67 228.289 208.87 227.89 208.87 227.175 208.87 226.461 208.703 226.07 208.363 226.07 208.022 226.07 207.856 226.469 207.856 227.209Z" fill="#F6A01A" fill-rule="nonzero" fill-opacity="1"/><path d="M210.897 226.262 210.897 226.262 210.348 226.536 210.215 226.07 210.938 225.713 211.412 225.713 211.412 228.696 210.863 228.696Z" fill="#F6A01A" fill-rule="nonzero" fill-opacity="1"/><path d="M189.446 231.736 189.446 231.736 188.906 232.01 188.806 231.578 189.538 231.221 190.003 231.221 190.003 234.204 189.446 234.204Z" fill="#F6A01A" fill-rule="nonzero" fill-opacity="1"/><path d="M192.113 231.736 192.113 231.736 191.573 232.01 191.473 231.578 192.204 231.221 192.67 231.221 192.67 234.204 192.121 234.204Z" fill="#F6A01A" fill-rule="nonzero" fill-opacity="1"/><path d="M196.018 232.692C196.018 233.655 195.644 234.254 194.929 234.254 194.215 234.254 193.874 233.63 193.874 232.725 193.874 231.819 194.265 231.171 194.962 231.171 195.66 231.171 196.018 231.819 196.018 232.692ZM194.439 232.692C194.439 233.423 194.638 233.797 194.946 233.797 195.253 233.797 195.453 233.398 195.453 232.683 195.453 231.969 195.286 231.578 194.954 231.578 194.622 231.578 194.431 231.977 194.431 232.717Z" fill="#F6A01A" fill-rule="nonzero" fill-opacity="1"/><path d="M198.701 232.692C198.701 233.655 198.327 234.254 197.613 234.254 196.898 234.254 196.558 233.63 196.558 232.725 196.558 231.819 196.948 231.171 197.646 231.171 198.344 231.171 198.701 231.819 198.701 232.692ZM197.122 232.692C197.122 233.423 197.322 233.797 197.629 233.797 197.937 233.797 198.136 233.398 198.136 232.683 198.136 231.969 197.97 231.578 197.638 231.578 197.305 231.578 197.122 231.977 197.122 232.717Z" fill="#F6A01A" fill-rule="nonzero" fill-opacity="1"/><path d="M201.384 232.692C201.384 233.655 201.01 234.254 200.296 234.254 199.582 234.254 199.241 233.63 199.241 232.725 199.241 231.819 199.631 231.171 200.329 231.171 201.027 231.171 201.384 231.819 201.384 232.692ZM199.806 232.692C199.806 233.423 200.005 233.797 200.313 233.797 200.62 233.797 200.819 233.398 200.819 232.683 200.819 231.969 200.653 231.578 200.313 231.578 199.972 231.578 199.806 231.977 199.806 232.717Z" fill="#F6A01A" fill-rule="nonzero" fill-opacity="1"/><path d="M204.068 232.692C204.068 233.655 203.694 234.254 202.979 234.254 202.265 234.254 201.908 233.63 201.908 232.725 201.908 231.819 202.298 231.171 202.996 231.171 203.694 231.171 204.068 231.819 204.068 232.692ZM202.489 232.692C202.489 233.423 202.689 233.797 202.996 233.797 203.303 233.797 203.503 233.398 203.503 232.683 203.503 231.969 203.337 231.578 202.996 231.578 202.655 231.578 202.489 231.977 202.489 232.717Z" fill="#F6A01A" fill-rule="nonzero" fill-opacity="1"/><path d="M206.751 232.692C206.751 233.655 206.377 234.254 205.663 234.254 204.948 234.254 204.608 233.63 204.608 232.725 204.608 231.819 204.998 231.171 205.696 231.171 206.394 231.171 206.751 231.819 206.751 232.692ZM205.173 232.692C205.173 233.423 205.372 233.797 205.679 233.797 205.987 233.797 206.186 233.398 206.186 232.683 206.186 231.969 206.02 231.578 205.679 231.578 205.339 231.578 205.173 231.977 205.173 232.717Z" fill="#F6A01A" fill-rule="nonzero" fill-opacity="1"/><path d="M208.213 231.736 208.213 231.736 207.665 232.01 207.574 231.578 208.305 231.221 208.77 231.221 208.77 234.204 208.222 234.204Z" fill="#F6A01A" fill-rule="nonzero" fill-opacity="1"/><path d="M210.897 231.736 210.897 231.736 210.348 232.01 210.215 231.578 210.938 231.221 211.412 231.221 211.412 234.204 210.863 234.204Z" fill="#F6A01A" fill-rule="nonzero" fill-opacity="1"/></g></g></g></g></g></svg>