<svg width="52" height="54" xmlns="http://www.w3.org/2000/svg" xmlns:xlink="http://www.w3.org/1999/xlink" xml:space="preserve" overflow="hidden"><defs><clipPath id="clip0"><rect x="532" y="206" width="52" height="54"/></clipPath><clipPath id="clip1"><rect x="532" y="206" width="52" height="54"/></clipPath><clipPath id="clip2"><rect x="532" y="207" width="51" height="52"/></clipPath><clipPath id="clip3"><rect x="532" y="207" width="51" height="52"/></clipPath></defs><g clip-path="url(#clip0)" transform="translate(-532 -206)"><g clip-path="url(#clip1)"><g clip-path="url(#clip2)"><g clip-path="url(#clip3)"><path d="M0 0.00273576 70.0328 0.00273576 70.0328 70.0356 0 70.0356 0 0.00273576" stroke="#F6A01A" stroke-width="0.0350178" stroke-linecap="butt" stroke-linejoin="miter" stroke-miterlimit="4" stroke-opacity="1" fill="none" fill-rule="evenodd" transform="matrix(1.00237 0 0 1 523.135 198.298)"/><path d="M66.8223 67.0646 66.1549 67.0646C66.1241 67.0646 66.0992 67.0895 66.0992 67.1203L66.0992 67.7874C66.0992 67.8182 66.1241 67.8431 66.1549 67.8431L66.8223 67.8431C66.8528 67.8431 66.878 67.8182 66.878 67.7874L66.878 67.1203C66.878 67.0895 66.8528 67.0646 66.8223 67.0646" stroke="#F6A01A" stroke-width="0.0350178" stroke-linecap="butt" stroke-linejoin="miter" stroke-miterlimit="4" stroke-opacity="1" fill="none" fill-rule="evenodd" transform="matrix(1.00237 0 0 1 523.135 198.298)"/><path d="M65.318 67.1 64.681 67.1C64.6519 67.1 64.6281 67.1242 64.6281 67.1532L64.6281 67.7902C64.6281 67.8193 64.6519 67.8431 64.681 67.8431L65.318 67.8431C65.347 67.8431 65.3712 67.8193 65.3712 67.7902L65.3712 67.1532C65.3712 67.1242 65.347 67.1 65.318 67.1" stroke="#F6A01A" stroke-width="0.0350178" stroke-linecap="butt" stroke-linejoin="miter" stroke-miterlimit="4" stroke-opacity="1" fill="none" fill-rule="evenodd" transform="matrix(1.00237 0 0 1 523.135 198.298)"/><path d="M63.8136 67.1357 63.2074 67.1357C63.1794 67.1357 63.1567 67.1585 63.1567 67.1865L63.1567 67.7927C63.1567 67.8203 63.1794 67.8431 63.2074 67.8431L63.8136 67.8431C63.8416 67.8431 63.8644 67.8203 63.8644 67.7927L63.8644 67.1865C63.8644 67.1585 63.8416 67.1357 63.8136 67.1357" stroke="#F6A01A" stroke-width="0.0350178" stroke-linecap="butt" stroke-linejoin="miter" stroke-miterlimit="4" stroke-opacity="1" fill="none" fill-rule="evenodd" transform="matrix(1.00237 0 0 1 523.135 198.298)"/><path d="M62.3096 67.1714 61.7339 67.1714C61.7073 67.1714 61.6856 67.1928 61.6856 67.2194L61.6856 67.7951C61.6856 67.8217 61.7073 67.8431 61.7339 67.8431L62.3096 67.8431C62.3358 67.8431 62.3576 67.8217 62.3576 67.7951L62.3576 67.2194C62.3576 67.1928 62.3358 67.1714 62.3096 67.1714" stroke="#F6A01A" stroke-width="0.0350178" stroke-linecap="butt" stroke-linejoin="miter" stroke-miterlimit="4" stroke-opacity="1" fill="none" fill-rule="evenodd" transform="matrix(1.00237 0 0 1 523.135 198.298)"/><path d="M60.8052 67.2068 60.26 67.2068C60.2351 67.2068 60.2145 67.2275 60.2145 67.2523L60.2145 67.7976C60.2145 67.8228 60.2351 67.8431 60.26 67.8431L60.8052 67.8431C60.8304 67.8431 60.8507 67.8228 60.8507 67.7976L60.8507 67.2523C60.8507 67.2275 60.8304 67.2068 60.8052 67.2068" stroke="#F6A01A" stroke-width="0.0350178" stroke-linecap="butt" stroke-linejoin="miter" stroke-miterlimit="4" stroke-opacity="1" fill="none" fill-rule="evenodd" transform="matrix(1.00237 0 0 1 523.135 198.298)"/><path d="M59.3012 67.2425 58.7864 67.2425C58.7626 67.2425 58.7434 67.2618 58.7434 67.2856L58.7434 67.8004C58.7434 67.8238 58.7626 67.8431 58.7864 67.8431L59.3012 67.8431C59.3247 67.8431 59.3439 67.8238 59.3439 67.8004L59.3439 67.2856C59.3439 67.2618 59.3247 67.2425 59.3012 67.2425" stroke="#F6A01A" stroke-width="0.0350178" stroke-linecap="butt" stroke-linejoin="miter" stroke-miterlimit="4" stroke-opacity="1" fill="none" fill-rule="evenodd" transform="matrix(1.00237 0 0 1 523.135 198.298)"/><path d="M57.7968 67.2783 57.3125 67.2783C57.2905 67.2783 57.2723 67.2965 57.2723 67.3185L57.2723 67.8028C57.2723 67.8252 57.2905 67.8431 57.3125 67.8431L57.7968 67.8431C57.8193 67.8431 57.8371 67.8252 57.8371 67.8028L57.8371 67.3185C57.8371 67.2965 57.8193 67.2783 57.7968 67.2783" stroke="#F6A01A" stroke-width="0.0350178" stroke-linecap="butt" stroke-linejoin="miter" stroke-miterlimit="4" stroke-opacity="1" fill="none" fill-rule="evenodd" transform="matrix(1.00237 0 0 1 523.135 198.298)"/><path d="M56.2925 67.3136 55.839 67.3136C55.818 67.3136 55.8012 67.3308 55.8012 67.3518L55.8012 67.8053C55.8012 67.8263 55.818 67.8431 55.839 67.8431L56.2925 67.8431C56.3135 67.8431 56.3306 67.8263 56.3306 67.8053L56.3306 67.3518C56.3306 67.3308 56.3135 67.3136 56.2925 67.3136" stroke="#F6A01A" stroke-width="0.0350178" stroke-linecap="butt" stroke-linejoin="miter" stroke-miterlimit="4" stroke-opacity="1" fill="none" fill-rule="evenodd" transform="matrix(1.00237 0 0 1 523.135 198.298)"/><path d="M54.7885 67.3493 54.3651 67.3493C54.3458 67.3493 54.3297 67.3654 54.3297 67.3847L54.3297 67.8081C54.3297 67.8273 54.3458 67.8431 54.3651 67.8431L54.7885 67.8431C54.8077 67.8431 54.8238 67.8273 54.8238 67.8081L54.8238 67.3847C54.8238 67.3654 54.8077 67.3493 54.7885 67.3493" stroke="#F6A01A" stroke-width="0.0350178" stroke-linecap="butt" stroke-linejoin="miter" stroke-miterlimit="4" stroke-opacity="1" fill="none" fill-rule="evenodd" transform="matrix(1.00237 0 0 1 523.135 198.298)"/><path d="M18.7997 53.0085 47.3269 53.0085 53.0085 47.3265 53.0085 18.7997C53.0085 17.8232 52.2094 17.0242 51.2331 17.0242L18.7997 17.0242C17.8232 17.0242 17.0242 17.8232 17.0242 18.7997L17.0242 51.2331C17.0242 52.2094 17.8232 53.0085 18.7997 53.0085Z" stroke="#F6A01A" stroke-width="1.4007" stroke-linecap="round" stroke-linejoin="round" stroke-miterlimit="2.61313" stroke-opacity="1" fill="none" fill-rule="nonzero" transform="matrix(1.00237 0 0 -1 523.135 268.334)"/><path d="M23.3756 53.0085 46.657 53.0085 46.657 43.2365C46.657 41.9222 45.5847 40.85 44.2705 40.85L25.762 40.85C24.448 40.85 23.3756 41.9222 23.3756 43.2365Z" stroke="#F6A01A" stroke-width="1.40072" stroke-linecap="round" stroke-linejoin="round" stroke-miterlimit="2.61313" stroke-opacity="1" fill="none" fill-rule="nonzero" transform="matrix(1.00237 0 0 -1 523.135 268.334)"/><path d="M46.8594 17.0242 23.1734 17.0242 23.1734 29.385C23.1734 30.8106 24.3364 31.9735 25.762 31.9735L44.2705 31.9735C45.6964 31.9735 46.8594 30.8106 46.8594 29.385Z" stroke="#F6A01A" stroke-width="1.40072" stroke-linecap="round" stroke-linejoin="round" stroke-miterlimit="2.61313" stroke-opacity="1" fill="none" fill-rule="nonzero" transform="matrix(1.00237 0 0 -1 523.135 268.334)"/><path d="M37.8574 45.1341 42.2216 45.1341 42.2216 53.0085 37.8574 53.0085ZM27.9142 26.3989 42.1183 26.3989 42.1183 25.5009 27.9142 25.5009ZM27.9142 21.6875 42.1183 21.6875 42.1183 20.7894 27.9142 20.7894Z" stroke="#F6A01A" stroke-width="1.40071" stroke-linecap="round" stroke-linejoin="round" stroke-miterlimit="2.61313" stroke-opacity="1" fill="none" fill-rule="nonzero" transform="matrix(1.00237 0 0 -1 523.135 268.334)"/></g></g></g></g></svg>