<svg width="56" height="55" xmlns="http://www.w3.org/2000/svg" xmlns:xlink="http://www.w3.org/1999/xlink" xml:space="preserve" overflow="hidden"><g transform="translate(-208 -202)"><g><g><g><g><path d="M220.041 244.979 251.153 244.979C252.153 244.979 252.964 244.168 252.964 243.168 252.964 243.165 252.964 243.162 252.964 243.159L252.964 241.78 239.996 241.78C239.996 242.629 239.308 243.317 238.459 243.317L232.735 243.317C231.89 243.313 231.206 242.626 231.206 241.78L218.23 241.78 218.23 243.159C218.23 244.161 219.039 244.974 220.041 244.979Z" fill="#F6A01A" fill-rule="nonzero" fill-opacity="1"/><path d="M249.791 219.383 251.826 221.418 251.826 217.223C251.822 215.665 250.56 214.403 249.002 214.398L222.201 214.398C220.643 214.403 219.381 215.665 219.376 217.223L219.376 239.654 251.826 239.654 251.826 228.978 249.782 231.022C249.665 231.147 249.531 231.256 249.384 231.346L249.384 237.46 221.819 237.46 221.819 216.965 249.384 216.965 249.384 219.059C249.53 219.152 249.667 219.261 249.791 219.383Z" fill="#F6A01A" fill-rule="nonzero" fill-opacity="1"/><path d="M248.611 229.842C248.484 229.977 248.306 230.053 248.121 230.05 248.027 230.049 247.935 230.032 247.847 230 247.594 229.888 247.431 229.637 247.431 229.36L247.431 227.283 245.695 227.283C243.311 227.283 241.799 227.732 240.951 228.696 240.104 229.659 239.813 231.329 240.121 233.822 240.132 233.976 240.046 234.122 239.905 234.187L239.772 234.187C239.661 234.184 239.558 234.132 239.489 234.046 239.414 233.938 237.695 231.495 237.695 229.335 237.695 226.436 238.6 223.096 245.662 223.096L247.398 223.096 247.398 221.019C247.398 220.743 247.56 220.492 247.814 220.38 247.901 220.345 247.994 220.325 248.088 220.322 248.271 220.327 248.446 220.401 248.578 220.529L252.732 224.683C253 224.947 253.004 225.378 252.74 225.646 252.738 225.649 252.735 225.652 252.732 225.655Z" fill="#F6A01A" fill-rule="nonzero" fill-opacity="1"/><path d="M229.927 234.395 229.927 232.908C228.98 232.878 228.05 232.643 227.202 232.218L227.684 230.341C228.5 230.794 229.417 231.037 230.351 231.047 231.281 231.047 231.904 230.681 231.904 230.058 231.904 229.435 231.389 229.061 230.185 228.662 228.473 228.039 227.277 227.242 227.277 225.68 227.277 224.251 228.266 223.146 229.985 222.83L229.985 221.277 231.555 221.277 231.555 222.689C232.365 222.7 233.163 222.881 233.898 223.221L233.416 225.032C232.703 224.66 231.911 224.466 231.107 224.467 230.068 224.467 229.728 224.932 229.728 225.381 229.728 225.83 230.293 226.253 231.672 226.752 233.582 227.425 234.33 228.305 234.33 229.767 234.33 231.23 233.342 232.409 231.489 232.717L231.489 234.378Z" fill="#F6A01A" fill-rule="nonzero" fill-opacity="1"/></g></g></g></g></g></svg>