<svg width="66" height="66" xmlns="http://www.w3.org/2000/svg" xmlns:xlink="http://www.w3.org/1999/xlink" xml:space="preserve" overflow="hidden"><g transform="translate(-306 -216)"><g><g><g><g><path d="M49.8708 56.5858 18.2351 56.5858C16.4514 56.5858 15.0055 55.1399 15.0055 53.3563L15.0055 17.9102C15.0055 16.1265 16.4514 14.6806 18.2351 14.6806L21.1102 14.6806 21.1102 50.1563 38.2818 50.1563 38.5378 50.1563 46.9957 50.1563 46.9957 14.7102 49.8708 14.7102C51.6544 14.7102 53.1003 16.1561 53.1003 17.9397L53.1003 53.3858C53.0841 55.158 51.6429 56.5859 49.8708 56.5858ZM18.2351 16.3348C17.4006 16.3614 16.7381 17.0458 16.7385 17.8806L16.7385 53.3268C16.7385 54.1805 17.4305 54.8726 18.2843 54.8726L49.8708 54.8726C50.7245 54.8726 51.4166 54.1805 51.4166 53.3268L51.4166 17.8806C51.4166 17.0269 50.7245 16.3348 49.8708 16.3348L48.6794 16.3348 48.6794 51.7809 38.6068 51.7809 38.2818 51.7809 19.4265 51.7809 19.4265 16.3348Z" stroke="#333333" stroke-width="0.984554" stroke-linecap="butt" stroke-linejoin="miter" stroke-miterlimit="4" stroke-opacity="1" fill="#40494F" fill-rule="nonzero" fill-opacity="1" transform="matrix(1 0 0 1.01562 307 217)"/><path d="M43.8055 21.1692 24.4677 21.1692C23.3991 21.1695 22.5251 20.3175 22.4985 19.2492L22.4985 14.0406C22.5034 12.9857 23.3626 12.1345 24.4176 12.1394 24.4342 12.1395 24.451 12.1398 24.4677 12.1403L28.5538 12.1403C29.0235 9.038 31.9192 6.90379 35.0214 7.37343 37.4833 7.74612 39.4156 9.67844 39.7883 12.1403L43.8351 12.1403C44.89 12.1349 45.7497 12.9856 45.7551 14.0405 45.7551 14.0406 45.7551 14.0406 45.7551 14.0406L45.7551 19.2492C45.7286 20.31 44.8666 21.159 43.8055 21.1692ZM24.4677 13.7846C24.3427 13.7791 24.237 13.8759 24.2314 14.0008 24.2314 14.0009 24.2314 14.0011 24.2314 14.0012L24.2314 19.2098C24.2364 19.3382 24.3393 19.4411 24.4677 19.4462L43.8055 19.4462C43.9361 19.4462 44.0418 19.3403 44.0418 19.2098L44.0418 14.0406C44.0365 13.9157 43.9309 13.8187 43.8059 13.824 43.8058 13.824 43.8056 13.824 43.8055 13.824L38.1342 13.824 38.1342 12.9772C38.1342 10.7694 36.3444 8.97969 34.1366 8.97969 31.9288 8.97969 30.1391 10.7694 30.1391 12.9772L30.1391 13.7846Z" stroke="#333333" stroke-width="0.984554" stroke-linecap="butt" stroke-linejoin="miter" stroke-miterlimit="4" stroke-opacity="1" fill="#40494F" fill-rule="nonzero" fill-opacity="1" transform="matrix(1 0 0 1.01562 307 217)"/><path d="M34.1366 15.9902C32.4672 15.9902 31.1138 14.6368 31.1138 12.9674 31.1138 11.298 32.4672 9.94462 34.1366 9.94462 35.806 9.94462 37.1594 11.298 37.1594 12.9674 37.1594 12.9706 37.1594 12.974 37.1594 12.9772 37.1594 14.6412 35.8105 15.9902 34.1465 15.9902 34.1432 15.9902 34.1399 15.9902 34.1366 15.9902ZM34.1366 11.6283C33.3971 11.6337 32.802 12.2376 32.8074 12.9771 32.8074 12.9772 32.8074 12.9772 32.8074 12.9772 32.8707 13.714 33.5195 14.26 34.2562 14.1967 34.9052 14.1408 35.4199 13.6262 35.4757 12.9772 35.4757 12.2361 34.8777 11.6337 34.1366 11.6283Z" stroke="#333333" stroke-width="0.984554" stroke-linecap="butt" stroke-linejoin="miter" stroke-miterlimit="4" stroke-opacity="1" fill="#40494F" fill-rule="nonzero" fill-opacity="1" transform="matrix(1 0 0 1.01562 307 217)"/><path d="M42.9588 27.3723C43.6929 27.3723 44.288 27.9674 44.288 28.7015L44.288 29.3809C44.288 30.115 43.6929 30.7102 42.9588 30.7102L30.976 30.7102C30.2419 30.7102 29.6468 30.115 29.6468 29.3809L29.6468 28.7015C29.6468 27.9674 30.2419 27.3723 30.976 27.3723Z" stroke="#333333" stroke-width="0.984554" stroke-linecap="butt" stroke-linejoin="miter" stroke-miterlimit="4" stroke-opacity="1" fill="#40494F" fill-rule="nonzero" fill-opacity="1" transform="matrix(1 0 0 1.01562 307 217)"/><path d="M28.1108 41.6492C28.1216 42.7803 27.2136 43.7059 26.0826 43.7168 24.9515 43.7277 24.0258 42.8196 24.015 41.6886 24.0041 40.5575 24.9121 39.6319 26.0432 39.621 26.053 39.6209 26.0628 39.6209 26.0726 39.6209 27.1944 39.6209 28.1054 40.5275 28.1108 41.6492Z" stroke="#333333" stroke-width="0.984554" stroke-linecap="butt" stroke-linejoin="miter" stroke-miterlimit="4" stroke-opacity="1" fill="#40494F" fill-rule="nonzero" fill-opacity="1" transform="matrix(1 0 0 1.01562 307 217)"/><path d="M28.1108 35.3378C28.1162 36.4689 27.2036 37.3902 26.0726 37.3956 24.9416 37.4011 24.0203 36.4886 24.0148 35.3575 24.0094 34.2264 24.9219 33.3051 26.0529 33.2997 26.0595 33.2997 26.066 33.2997 26.0726 33.2997 27.1982 33.2997 28.1108 34.2122 28.1108 35.3378Z" stroke="#333333" stroke-width="0.984554" stroke-linecap="butt" stroke-linejoin="miter" stroke-miterlimit="4" stroke-opacity="1" fill="#40494F" fill-rule="nonzero" fill-opacity="1" transform="matrix(1 0 0 1.01562 307 217)"/><path d="M42.9588 40.0049C43.6929 40.0049 44.288 40.6 44.288 41.3342L44.288 42.0135C44.288 42.7477 43.6929 43.3428 42.9588 43.3428L30.976 43.3428C30.2419 43.3428 29.6468 42.7477 29.6468 42.0135L29.6468 41.3342C29.6468 40.6 30.2419 40.0049 30.976 40.0049Z" stroke="#333333" stroke-width="0.984554" stroke-linecap="butt" stroke-linejoin="miter" stroke-miterlimit="4" stroke-opacity="1" fill="#40494F" fill-rule="nonzero" fill-opacity="1" transform="matrix(1 0 0 1.01562 307 217)"/><path d="M28.1108 29.0265C28.1162 30.1575 27.2036 31.0788 26.0726 31.0843 24.9416 31.0897 24.0203 30.1772 24.0148 29.0462 24.0094 27.915 24.9219 26.9937 26.0529 26.9883 26.0595 26.9883 26.066 26.9883 26.0726 26.9883 27.1982 26.9883 28.1108 27.9008 28.1108 29.0265Z" stroke="#333333" stroke-width="0.984554" stroke-linecap="butt" stroke-linejoin="miter" stroke-miterlimit="4" stroke-opacity="1" fill="#40494F" fill-rule="nonzero" fill-opacity="1" transform="matrix(1 0 0 1.01562 307 217)"/><path d="M42.9588 33.6935C43.6929 33.6935 44.288 34.2887 44.288 35.0228L44.288 35.7022C44.288 36.4363 43.6929 37.0314 42.9588 37.0314L30.976 37.0314C30.2419 37.0314 29.6468 36.4363 29.6468 35.7022L29.6468 35.0228C29.6468 34.2887 30.2419 33.6935 30.976 33.6935Z" stroke="#333333" stroke-width="0.984554" stroke-linecap="butt" stroke-linejoin="miter" stroke-miterlimit="4" stroke-opacity="1" fill="#40494F" fill-rule="nonzero" fill-opacity="1" transform="matrix(1 0 0 1.01562 307 217)"/></g></g></g></g></g></svg>